#!OML:ASF X:\für Bonn\!DataBase\2005_08_11_Bastian_Final\c3d\Bastian.ASF
:FULLY-SPECIFIED
:DEGREES
66
root 0.757296 16.3623 0.529883 131.331 -28.2644 -168.839
lowerback 55.4951 -7.07724 4.58203
upperback 16.6078 -16.119 5.12358
thorax -0.806701 -12.5164 9.53857
lowerneck -4.85818 -10.7515 -9.9253
upperneck -9.67639 -12.3944 21.994
head 0.191853 -5.84407 7.94606
rclavicle 2.40529e-014 1.23246e-014
rhumerus -67.6842 39.544 -124.008
rradius 40.8686
rwrist -41.4891
rhand -34.6599 1.24797
rfingers 7.12502
rthumb -7.81652 -28.5875
lclavicle 2.40529e-014 1.23246e-014
lhumerus 59.6582 -27.2263 73.4232
lradius 115.434
lwrist -21.9547
lhand -54.2613 -23.3773
lfingers 7.12502
lthumb -26.6734 4.76328
rfemur -92.3239 -4.81894 33.3105
rtibia 139.479
rfoot 6.16943 -2.54048
rtoes -6.1362
lfemur 28.0195 -4.68839 -13.4997
ltibia 39.838
lfoot -12.5965 -18.9884
ltoes 7.94803
67
root 0.747301 16.3574 0.531362 131.524 -28.2139 -169.003
lowerback 55.3485 -7.02098 4.5161
upperback 16.6065 -16.0543 5.08865
thorax -0.815109 -12.4641 9.499
lowerneck -5.07266 -10.8006 -9.96363
upperneck -9.70653 -12.4192 22.1687
head 0.241927 -5.83536 7.99445
rclavicle 9.20373e-014 -5.62561e-014
rhumerus -67.3212 39.639 -123.691
rradius 40.7499
rwrist -40.9962
rhand -34.2199 1.32269
rfingers 7.12502
rthumb -7.39182 -28.5282
lclavicle 9.20373e-014 -5.62561e-014
lhumerus 59.961 -27.2115 72.7963
lradius 115.44
lwrist -21.9948
lhand -54.2041 -22.8863
lfingers 7.12502
lthumb -26.6186 5.26261
rfemur -92.2335 -4.82555 33.5697
rtibia 139.433
rfoot 6.72793 -2.76886
rtoes -6.37325
lfemur 27.8865 -4.52267 -13.6021
ltibia 39.9391
lfoot -12.6581 -18.9487
ltoes 8.09371
68
root 0.736707 16.3538 0.534045 131.761 -28.1263 -169.181
lowerback 55.1659 -6.95483 4.44161
upperback 16.6047 -15.9802 5.05861
thorax -0.82122 -12.4059 9.46254
lowerneck -5.28075 -10.8345 -9.97153
upperneck -9.77649 -12.4189 22.2784
head 0.267735 -5.81611 8.02152
rclavicle 4.05521e-014 -3.77691e-014
rhumerus -66.8848 39.7521 -123.299
rradius 40.6318
rwrist -40.529
rhand -33.8057 1.44338
rfingers 7.12502
rthumb -6.99197 -28.4211
lclavicle 4.05521e-014 -3.77691e-014
lhumerus 60.1532 -27.2133 72.1641
lradius 115.441
lwrist -22.1302
lhand -54.1266 -22.403
lfingers 7.12502
lthumb -26.5445 5.7571
rfemur -92.0834 -4.80752 33.7665
rtibia 139.388
rfoot 7.31259 -2.84948
rtoes -5.79259
lfemur 27.7479 -4.31632 -13.6785
ltibia 39.9836
lfoot -12.675 -18.9238
ltoes 8.33477
69
root 0.725864 16.3504 0.537734 132.028 -28.0473 -169.358
lowerback 54.9485 -6.90895 4.37594
upperback 16.5871 -15.9065 5.01342
thorax -0.847872 -12.3359 9.40811
lowerneck -5.42531 -10.8525 -9.95648
upperneck -9.90299 -12.3922 22.351
head 0.257692 -5.78965 8.04076
rclavicle 7.87187e-014 -1.56046e-013
rhumerus -66.3033 39.7479 -122.777
rradius 40.434
rwrist -39.9435
rhand -33.3917 1.68332
rfingers 7.12502
rthumb -6.59233 -28.1941
lclavicle 7.87187e-014 -1.56046e-013
lhumerus 60.224 -27.2529 71.5824
lradius 115.415
lwrist -22.26
lhand -53.9523 -22.0457
lfingers 7.12502
lthumb -26.3777 6.13952
rfemur -91.8906 -4.85344 33.9293
rtibia 139.363
rfoot 7.94595 -2.71719
rtoes -5.26265
lfemur 27.5874 -4.10542 -13.7649
ltibia 39.9796
lfoot -12.7138 -18.8644
ltoes 8.26572
70
root 0.715309 16.3547 0.543378 132.333 -27.9529 -169.54
lowerback 54.6869 -6.86032 4.29979
upperback 16.5741 -15.8345 4.97339
thorax -0.863379 -12.2664 9.35971
lowerneck -5.57633 -10.8605 -9.98763
upperneck -10.0486 -12.344 22.4456
head 0.245247 -5.75068 8.07668
rclavicle -3.3197e-014 4.57205e-014
rhumerus -65.6735 39.7765 -122.198
rradius 40.2753
rwrist -39.3603
rhand -33.0826 1.84346
rfingers 7.12502
rthumb -6.29397 -28.043
lclavicle -3.3197e-014 4.57205e-014
lhumerus 60.1925 -27.2927 71.04
lradius 115.37
lwrist -22.4697
lhand -53.7732 -21.7277
lfingers 7.12502
lthumb -26.2062 6.48313
rfemur -91.578 -4.92189 34.0282
rtibia 139.339
rfoot 8.48201 -2.39089
rtoes -4.88513
lfemur 27.4305 -3.9138 -13.8779
ltibia 39.9053
lfoot -12.7012 -18.754
ltoes 8.26443
71
root 0.704608 16.3651 0.550525 132.641 -27.7948 -169.68
lowerback 54.3939 -6.83035 4.29882
upperback 16.5576 -15.742 4.93691
thorax -0.88836 -12.1803 9.27473
lowerneck -5.68584 -10.8606 -9.96499
upperneck -10.264 -12.2772 22.4788
head 0.193664 -5.70779 8.0907
rclavicle -1.98785e-015 -5.32743e-014
rhumerus -65.0447 39.8036 -121.605
rradius 40.1815
rwrist -38.8548
rhand -32.8936 2.08372
rfingers 7.12502
rthumb -6.11152 -27.8081
lclavicle -1.98785e-015 -5.32743e-014
lhumerus 60.0448 -27.4046 70.5856
lradius 115.28
lwrist -22.7071
lhand -53.5673 -21.6113
lfingers 7.12502
lthumb -26.0091 6.6286
rfemur -91.1161 -4.99025 34.1201
rtibia 139.32
rfoot 8.78633 -1.98891
rtoes -5.0155
lfemur 27.287 -3.70008 -13.9063
ltibia 39.7633
lfoot -12.6527 -18.6585
ltoes 8.2694
72
root 0.694099 16.3765 0.557666 132.973 -27.6358 -169.842
lowerback 54.0703 -6.78047 4.26708
upperback 16.5506 -15.6423 4.90065
thorax -0.897667 -12.0922 9.1959
lowerneck -5.80352 -10.8462 -9.89357
upperneck -10.4694 -12.1938 22.4667
head 0.13606 -5.65716 8.0834
rclavicle 2.80286e-014 -1.55052e-014
rhumerus -64.3909 39.8424 -120.966
rradius 40.1293
rwrist -38.3016
rhand -32.7756 2.30584
rfingers 7.12502
rthumb -5.99755 -27.5893
lclavicle 2.80286e-014 -1.55052e-014
lhumerus 59.7857 -27.5472 70.2567
lradius 115.142
lwrist -22.9622
lhand -53.3438 -21.6613
lfingers 7.12502
lthumb -25.795 6.60987
rfemur -90.6054 -5.11255 34.1335
rtibia 139.333
rfoot 8.85888 -1.42704
rtoes -5.72291
lfemur 27.1782 -3.5388 -14.0153
ltibia 39.5482
lfoot -12.6156 -18.4558
ltoes 8.18719
73
root 0.684112 16.3926 0.565862 133.319 -27.4289 -169.942
lowerback 53.7363 -6.77558 4.29718
upperback 16.506 -15.5438 4.86179
thorax -0.953869 -11.9905 9.09593
lowerneck -5.86985 -10.807 -9.74693
upperneck -10.6915 -12.0808 22.3926
head 0.0495595 -5.59818 8.0501
rclavicle -5.26779e-014 -3.97569e-016
rhumerus -63.7684 39.8736 -120.336
rradius 40.1019
rwrist -37.7934
rhand -32.7421 2.52982
rfingers 7.12502
rthumb -5.96521 -27.3662
lclavicle -5.26779e-014 -3.97569e-016
lhumerus 59.3272 -27.7413 70.0385
lradius 114.948
lwrist -23.2471
lhand -53.1842 -21.8306
lfingers 7.12502
lthumb -25.6422 6.46266
rfemur -89.9878 -5.27027 34.1454
rtibia 139.341
rfoot 8.64404 -0.878835
rtoes -7.17836
lfemur 27.0531 -3.50777 -14.1672
ltibia 39.3002
lfoot -12.5916 -18.0867
ltoes 8.03881
